<?xml version="1.0" encoding="UTF-8"?>
<svg id="Layer_1" data-name="Layer 1" xmlns="http://www.w3.org/2000/svg" viewBox="0 0 790.07 789.89">
  <defs>
    <style>
      .cls-1 {
        fill: #fff3af;
      }

      .cls-2 {
        fill: #fffeca;
      }
    </style>
  </defs>
  <g>
    <path class="cls-1" d="M381.33,703.77l-206.66-206.66c-5.63-5.63-5.63-14.75,0-20.38l19.33-19.33-38.66-38.66-19.33,19.33c-5.63,5.63-14.75,5.63-20.38,0l-29.52-29.52c-5.63-5.63-5.63-14.75,0-20.38l59.04-59.04c5.63-5.63,14.75-5.63,20.38,0l48.85,48.85,68.18-68.18-48.85-48.85c-5.63-5.63-5.63-14.75,0-20.38l147.61-147.61c5.63-5.63,14.75-5.63,20.38,0l118.09,118.09c5.63,5.63,5.63,14.75,0,20.38l-29.52,29.52c-5.63,5.63-14.75,5.63-20.38,0l-78.38-78.38-68.18,68.18,78.38,78.38c5.63,5.63,5.63,14.75,0,20.38l-29.52,29.52c-5.63,5.63-14.75,5.63-20.38,0l-19.34-19.34-68.18,68.18,19.34,19.34c5.63,5.63,5.63,14.75,0,20.38l-19.33,19.33,9.14,9.14,19.33-19.33c5.63-5.63,14.75-5.63,20.38,0l29.52,29.52c5.63,5.63,5.63,14.75,0,20.38l-19.33,19.33,9.14,9.14,19.33-19.33c5.63-5.63,14.75-5.63,20.38,0l29.52,29.52c5.63,5.63,5.63,14.75,0,20.38l-19.33,19.33,9.14,9.14,48.85-48.85c5.63-5.63,14.75-5.63,20.38,0l29.53,29.53c5.63,5.63,5.63,14.75,0,20.38l-88.56,88.56c-5.63,5.63-14.75,5.63-20.38,0ZM205.25,486.92l186.27,186.27,68.18-68.18-9.15-9.15-48.85,48.85c-5.63,5.63-14.75,5.63-20.38,0l-29.52-29.52c-5.63-5.63-5.63-14.75,0-20.38l19.33-19.33-9.14-9.14-19.33,19.33c-5.63,5.63-14.75,5.63-20.38,0l-29.52-29.52c-5.63-5.63-5.63-14.75,0-20.38l19.33-19.33-9.14-9.14-19.33,19.33c-5.63,5.63-14.75,5.63-20.38,0l-29.52-29.52c-5.63-5.63-5.63-14.75,0-20.38l19.33-19.33-19.34-19.34c-5.63-5.63-5.63-14.75,0-20.38l88.56-88.56c5.63-5.63,14.75-5.63,20.38,0l19.34,19.34,9.14-9.14-78.38-78.38c-5.63-5.63-5.63-14.75,0-20.38l88.56-88.56c5.63-5.63,14.75-5.63,20.38,0l78.38,78.38,9.14-9.14-97.7-97.7-127.22,127.22,48.85,48.85c5.63,5.63,5.63,14.75,0,20.38l-88.56,88.56c-5.63,5.63-14.75,5.63-20.38,0l-48.85-48.85-38.66,38.66,9.14,9.14,19.33-19.33c5.63-5.63,14.75-5.63,20.38,0l59.04,59.04c5.63,5.63,5.63,14.75,0,20.38l-19.33,19.33Z"/>
    <path class="cls-1" d="M440.37,408.55l-29.52-29.52c-5.63-5.63-5.63-14.75,0-20.38l19.33-19.33-78.38-78.38c-5.63-5.63-5.63-14.75,0-20.38l29.52-29.52c5.63-5.63,14.75-5.63,20.38,0l78.38,78.38,48.85-48.85c5.63-5.63,14.75-5.63,20.38,0l59.04,59.04c5.63,5.63,5.63,14.75,0,20.38l-29.52,29.52c-5.63,5.63-14.75,5.63-20.38,0l-19.33-19.33-78.37,78.37c-5.63,5.63-14.75,5.63-20.38,0ZM441.43,368.84l9.14,9.14,78.37-78.37c5.63-5.63,14.75-5.63,20.38,0l19.33,19.33,9.14-9.14-38.66-38.66-48.85,48.85c-5.63,5.63-14.75,5.63-20.38,0l-78.38-78.38-9.14,9.14,78.38,78.38c5.63,5.63,5.63,14.75,0,20.38l-19.33,19.33Z"/>
    <path class="cls-1" d="M410.85,556.16l-118.08-118.08c-5.63-5.63-5.63-14.75,0-20.38l29.52-29.52c5.63-5.63,14.75-5.63,20.38,0l19.33,19.33,19.33-19.33c5.63-5.63,14.75-5.63,20.38,0l29.52,29.52c5.63,5.63,5.63,14.75,0,20.38l-19.33,19.33,9.14,9.14,19.33-19.33c5.63-5.63,14.75-5.63,20.38,0l48.85,48.85,97.7-97.7-19.33-19.33c-5.63-5.63-5.63-14.75,0-20.38l29.52-29.52c5.63-5.63,14.75-5.63,20.38,0l59.05,59.05c5.63,5.63,5.63,14.75,0,20.38l-177.13,177.13c-5.63,5.63-14.75,5.63-20.38,0l-48.86-48.86-19.33,19.33c-5.63,5.63-14.75,5.63-20.38,0ZM323.34,427.89l97.69,97.69,19.33-19.33c5.63-5.63,14.75-5.63,20.38,0l48.86,48.86,156.74-156.74-38.67-38.67-9.14,9.14,19.33,19.33c5.63,5.63,5.63,14.75,0,20.38l-118.09,118.09c-5.63,5.63-14.75,5.63-20.38,0l-48.85-48.85-19.33,19.33c-5.63,5.63-14.75,5.63-20.38,0l-29.52-29.52c-5.63-5.63-5.63-14.75,0-20.38l19.33-19.33-9.14-9.14-19.33,19.33c-5.63,5.63-14.75,5.63-20.38,0l-19.33-19.33-9.14,9.14Z"/>
    <path class="cls-1" d="M499.41,467.59l-29.52-29.52c-5.63-5.63-5.63-14.75,0-20.38l59.04-59.04c5.63-5.63,14.75-5.63,20.38,0l29.52,29.52c5.63,5.63,5.63,14.75,0,20.38l-59.04,59.04c-5.63,5.63-14.75,5.63-20.38,0ZM500.46,427.88l9.14,9.14,38.66-38.66-9.14-9.14-38.66,38.66Z"/>
    <path class="cls-1" d="M204.2,349.51l-29.52-29.52c-5.63-5.63-5.63-14.75,0-20.38l29.52-29.52c5.63-5.63,14.75-5.63,20.38,0l29.52,29.52c5.63,5.63,5.63,14.75,0,20.38l-29.52,29.52c-5.63,5.63-14.75,5.63-20.38,0ZM205.25,309.8l9.14,9.14,9.14-9.14-9.14-9.14-9.14,9.14Z"/>
  </g>
  <g>
    <path class="cls-2" d="M391.21,693.88l-206.66-206.66c-2.11-2.11-2.11-5.53,0-7.64l25.7-25.7-51.4-51.4-25.7,25.7c-2.11,2.11-5.53,2.11-7.64,0l-29.52-29.52c-2.11-2.11-2.11-5.53,0-7.64l59.04-59.04c2.11-2.11,5.53-2.11,7.64,0l55.22,55.22,80.92-80.92-55.22-55.22c-2.11-2.11-2.11-5.53,0-7.64l147.6-147.6c2.11-2.11,5.53-2.11,7.64,0l118.09,118.09c2.11,2.11,2.11,5.53,0,7.64l-29.52,29.52c-2.11,2.11-5.53,2.11-7.64,0l-84.75-84.75-80.92,80.92,84.75,84.75c2.11,2.11,2.11,5.53,0,7.64l-29.52,29.52c-2.11,2.11-5.53,2.11-7.64,0l-25.71-25.71-80.92,80.92,25.71,25.71c2.11,2.11,2.11,5.53,0,7.64l-25.7,25.7,21.88,21.88,25.7-25.7c2.11-2.11,5.53-2.11,7.64,0l29.52,29.52c2.11,2.11,2.11,5.53,0,7.64l-25.7,25.7,21.88,21.88,25.7-25.7c2.11-2.11,5.53-2.11,7.64,0l29.52,29.52c2.11,2.11,2.11,5.53,0,7.64l-25.7,25.7,21.88,21.88,55.22-55.22c2.11-2.11,5.53-2.11,7.64,0l29.53,29.53c2.11,2.11,2.11,5.53,0,7.64l-88.56,88.56c-2.11,2.11-5.53,2.11-7.64,0ZM196.02,483.41l199.01,199.01,80.92-80.92-21.89-21.89-55.22,55.22c-2.11,2.11-5.53,2.11-7.64,0l-29.52-29.52c-2.11-2.11-2.11-5.53,0-7.64l25.7-25.7-21.88-21.88-25.7,25.7c-2.11,2.11-5.53,2.11-7.64,0l-29.52-29.52c-2.11-2.11-2.11-5.53,0-7.64l25.7-25.7-21.88-21.88-25.7,25.7c-2.11,2.11-5.53,2.11-7.64,0l-29.52-29.52c-2.11-2.11-2.11-5.53,0-7.64l25.7-25.7-25.71-25.71c-2.11-2.11-2.11-5.53,0-7.64l88.56-88.56c2.11-2.11,5.53-2.11,7.64,0l25.71,25.71,21.88-21.88-84.75-84.75c-2.11-2.11-2.11-5.53,0-7.64l88.56-88.56c2.11-2.11,5.53-2.11,7.64,0l84.75,84.75,21.88-21.88-110.44-110.44-139.96,139.96,55.22,55.22c2.11,2.11,2.11,5.53,0,7.64l-88.56,88.56c-2.11,2.11-5.53,2.11-7.64,0l-55.22-55.22-51.4,51.4,21.88,21.88,25.7-25.7c2.11-2.11,5.53-2.11,7.64,0l59.04,59.04c2.11,2.11,2.11,5.53,0,7.64l-25.7,25.7Z"/>
    <path class="cls-2" d="M450.25,398.67l-29.52-29.52c-2.11-2.11-2.11-5.53,0-7.64l25.7-25.7-84.75-84.75c-2.11-2.11-2.11-5.53,0-7.64l29.52-29.52c2.11-2.11,5.53-2.11,7.64,0l84.75,84.75,55.22-55.22c2.11-2.11,5.53-2.11,7.64,0l59.04,59.04c2.11,2.11,2.11,5.53,0,7.64l-29.52,29.52c-2.11,2.11-5.53,2.11-7.64,0l-25.7-25.7-84.74,84.74c-2.11,2.11-5.53,2.11-7.64,0ZM432.2,365.33l21.88,21.88,84.74-84.74c2.11-2.11,5.53-2.11,7.64,0l25.7,25.7,21.88-21.88-51.4-51.4-55.22,55.22c-2.11,2.11-5.53,2.11-7.64,0l-84.75-84.75-21.88,21.88,84.75,84.75c2.11,2.11,2.11,5.53,0,7.64l-25.7,25.7Z"/>
    <path class="cls-2" d="M420.73,546.27l-118.08-118.08c-2.11-2.11-2.11-5.53,0-7.64l29.52-29.52c2.11-2.11,5.53-2.11,7.64,0l25.7,25.7,25.7-25.7c2.11-2.11,5.53-2.11,7.64,0l29.52,29.52c2.11,2.11,2.11,5.53,0,7.64l-25.7,25.7,21.88,21.88,25.7-25.7c2.11-2.11,5.53-2.11,7.64,0l55.22,55.22,110.44-110.44-25.7-25.7c-2.11-2.11-2.11-5.53,0-7.64l29.52-29.52c2.11-2.11,5.53-2.11,7.64,0l59.05,59.05c2.11,2.11,2.11,5.53,0,7.64l-177.13,177.13c-2.11,2.11-5.53,2.11-7.64,0l-55.23-55.23-25.7,25.7c-2.11,2.11-5.53,2.11-7.64,0ZM314.12,424.37l110.43,110.43,25.7-25.7c2.11-2.11,5.53-2.11,7.64,0l55.23,55.23,169.48-169.48-51.41-51.41-21.88,21.88,25.7,25.7c2.11,2.11,2.11,5.53,0,7.64l-118.08,118.08c-2.11,2.11-5.53,2.11-7.64,0l-55.22-55.22-25.7,25.7c-2.11,2.11-5.53,2.11-7.64,0l-29.52-29.52c-2.11-2.11-2.11-5.53,0-7.64l25.7-25.7-21.88-21.88-25.7,25.7c-2.11,2.11-5.53,2.11-7.64,0l-25.7-25.7-21.88,21.88Z"/>
    <path class="cls-2" d="M509.29,457.71l-29.52-29.52c-2.11-2.11-2.11-5.53,0-7.64l59.04-59.04c2.11-2.11,5.53-2.11,7.64,0l29.52,29.52c2.11,2.11,2.11,5.53,0,7.64l-59.04,59.04c-2.11,2.11-5.53,2.11-7.64,0ZM491.24,424.37l21.88,21.88,51.4-51.4-21.88-21.88-51.4,51.4Z"/>
    <path class="cls-2" d="M214.08,339.63l-29.52-29.52c-2.11-2.11-2.11-5.53,0-7.64l29.52-29.52c2.11-2.11,5.53-2.11,7.64,0l29.52,29.52c2.11,2.11,2.11,5.53,0,7.64l-29.52,29.52c-2.11,2.11-5.53,2.11-7.64,0ZM196.03,306.28l21.88,21.88,21.88-21.88-21.88-21.88-21.88,21.88Z"/>
  </g>
  <path class="cls-1" d="M395.03,789.89c-4.29,0-8.41-1.71-11.45-4.74L4.74,406.3c-6.32-6.32-6.32-16.57,0-22.9L383.59,4.55c6.07-6.07,16.82-6.07,22.9,0l378.84,378.85c6.32,6.32,6.32,16.57,0,22.9l-378.84,378.85c-3.04,3.04-7.15,4.74-11.45,4.74ZM39.09,394.85l355.95,355.96,355.95-355.96L395.03,38.9,39.09,394.85Z"/>
  <path class="cls-2" d="M395.03,766.38c-2.15,0-4.21-.85-5.72-2.37L25.88,400.58c-3.16-3.16-3.16-8.29,0-11.45L389.31,25.69c3.04-3.04,8.41-3.04,11.45,0l363.43,363.43c3.16,3.16,3.16,8.29,0,11.45l-363.43,363.43c-1.52,1.52-3.57,2.37-5.72,2.37ZM43.06,394.85l351.98,351.99,351.98-351.99L395.03,42.87,43.06,394.85Z"/>
</svg>